HIERARCHY
ROOT Hips
{
	OFFSET 0.000000 83.214638 0.000000
	CHANNELS 6 Xposition Yposition Zposition Xrotation Yrotation Zrotation
	JOINT Pelvis
	{
		OFFSET 0.000000 0.000000 0.000000
		CHANNELS 3 Xrotation Yrotation Zrotation
		JOINT LeftUpLeg
		{
			OFFSET 8.479700 -4.795502 -0.379100
			CHANNELS 3 Xrotation Yrotation Zrotation
			JOINT LeftLeg
			{
				OFFSET 0.024144 -32.555107 0.112900
				CHANNELS 3 Xrotation Yrotation Zrotation
				JOINT LeftFoot
				{
					OFFSET -0.024144 -32.638630 -3.012600
					CHANNELS 3 Xrotation Yrotation Zrotation
					JOINT LeftToeBase
					{
						OFFSET 0.970200 -13.225400 11.864200
						CHANNELS 3 Xrotation Yrotation Zrotation
						End Site
						{
							OFFSET 0.000000 12.319262 0.000000
						}
					}
					JOINT LFootTongue
					{
						OFFSET 1.142400 -1.059800 6.665200
						CHANNELS 3 Xrotation Yrotation Zrotation
						End Site
						{
							OFFSET 0.000000 12.319262 0.000000
						}
					}
				}
				JOINT LeftPantLeg
				{
					OFFSET 0.918482 -16.533964 -2.284700
					CHANNELS 3 Xrotation Yrotation Zrotation
					End Site
					{
						OFFSET 0.350399 24.744368 0.000000
					}
				}
			}
		}
		JOINT RightUpLeg
		{
			OFFSET -8.479700 -4.795502 -0.379100
			CHANNELS 3 Xrotation Yrotation Zrotation
			JOINT RightLeg
			{
				OFFSET -0.023144 -32.555092 0.112900
				CHANNELS 3 Xrotation Yrotation Zrotation
				JOINT RightFoot
				{
					OFFSET 0.023144 -32.638641 -3.012700
					CHANNELS 3 Xrotation Yrotation Zrotation
					JOINT RightToeBase
					{
						OFFSET -0.970200 -13.225400 11.864200
						CHANNELS 3 Xrotation Yrotation Zrotation
						End Site
						{
							OFFSET 0.000000 12.319244 0.000000
						}
					}
					JOINT RFootTongue
					{
						OFFSET -1.142200 -1.059800 6.665200
						CHANNELS 3 Xrotation Yrotation Zrotation
						End Site
						{
							OFFSET 0.000000 12.319243 0.000000
						}
					}
				}
				JOINT RightPantLeg
				{
					OFFSET -0.919482 -16.533978 -2.284800
					CHANNELS 3 Xrotation Yrotation Zrotation
					End Site
					{
						OFFSET -0.350400 24.744419 0.000000
					}
				}
			}
		}
	}
	JOINT Spine
	{
		OFFSET 0.000000 7.722000 1.166200
		CHANNELS 3 Xrotation Yrotation Zrotation
		JOINT Spine1
		{
			OFFSET 0.000000 12.024101 0.248800
			CHANNELS 3 Xrotation Yrotation Zrotation
			JOINT Spine2
			{
				OFFSET 0.000000 11.502998 -0.491200
				CHANNELS 3 Xrotation Yrotation Zrotation
				JOINT Neck
				{
					OFFSET 0.000000 18.430702 -3.123100
					CHANNELS 3 Xrotation Yrotation Zrotation
					JOINT Head
					{
						OFFSET 0.000000 9.051102 1.034000
						CHANNELS 3 Xrotation Yrotation Zrotation
						JOINT HairB
						{
							OFFSET 0.208400 24.786102 24.822300
							CHANNELS 3 Xrotation Yrotation Zrotation
							End Site
							{
								OFFSET 0.000000 32.263779 0.000000
							}
						}
						JOINT HairA
						{
							OFFSET -7.081100 24.428299 23.196600
							CHANNELS 3 Xrotation Yrotation Zrotation
							End Site
							{
								OFFSET 0.000000 32.263779 0.000000
							}
						}
						JOINT Hat
						{
							OFFSET 16.728800 15.048294 -15.439601
							CHANNELS 3 Xrotation Yrotation Zrotation
							End Site
							{
								OFFSET 0.000000 32.263779 0.000000
							}
						}
					}
				}
				JOINT LeftShoulder
				{
					OFFSET 6.197800 13.665199 -4.064700
					CHANNELS 3 Xrotation Yrotation Zrotation
					JOINT LeftArm
					{
						OFFSET 7.778100 -0.187103 -1.709300
						CHANNELS 3 Xrotation Yrotation Zrotation
						JOINT LeftForeArm
						{
							OFFSET 22.049376 0.000000 0.000000
							CHANNELS 3 Xrotation Yrotation Zrotation
							JOINT LeftHand
							{
								OFFSET 23.009392 0.000000 0.000000
								CHANNELS 3 Xrotation Yrotation Zrotation
								JOINT LeftHandThumb1
								{
									OFFSET 3.507191 -2.063065 3.133727
									CHANNELS 3 Xrotation Yrotation Zrotation
									JOINT LeftHandThumb2
									{
										OFFSET 3.101337 -1.790558 1.790558
										CHANNELS 3 Xrotation Yrotation Zrotation
										JOINT LeftHandThumb3
										{
											OFFSET 3.058640 -1.765907 1.765906
											CHANNELS 3 Xrotation Yrotation Zrotation
											End Site
											{
												OFFSET -0.415260 3.926476 -0.049563
											}
										}
									}
								}
								JOINT LeftHandIndex1
								{
									OFFSET 11.334419 -0.901459 3.706815
									CHANNELS 3 Xrotation Yrotation Zrotation
									JOINT LeftHandIndex2
									{
										OFFSET 3.283112 0.000000 0.000000
										CHANNELS 3 Xrotation Yrotation Zrotation
										JOINT LeftHandIndex3
										{
											OFFSET 3.323853 0.000000 0.000000
											CHANNELS 3 Xrotation Yrotation Zrotation
											End Site
											{
												OFFSET -1.135597 3.097809 0.402452
											}
										}
									}
								}
								JOINT LeftHandMiddle1
								{
									OFFSET 11.335861 0.000000 0.000000
									CHANNELS 3 Xrotation Yrotation Zrotation
									JOINT LeftHandMiddle2
									{
										OFFSET 3.410492 0.000000 0.000000
										CHANNELS 3 Xrotation Yrotation Zrotation
										JOINT LeftHandMiddle3
										{
											OFFSET 3.312172 0.000000 0.000000
											CHANNELS 3 Xrotation Yrotation Zrotation
											End Site
											{
												OFFSET -1.150200 3.080154 0.400270
											}
										}
									}
								}
								JOINT LeftHandRing1
								{
									OFFSET 11.514786 -0.013176 -3.003090
									CHANNELS 3 Xrotation Yrotation Zrotation
									JOINT LeftHandRing2
									{
										OFFSET 3.053307 0.000000 0.000000
										CHANNELS 3 Xrotation Yrotation Zrotation
										JOINT LeftHandRing3
										{
											OFFSET 3.295807 0.000000 0.000000
											CHANNELS 3 Xrotation Yrotation Zrotation
											End Site
											{
												OFFSET -1.281006 3.013344 0.375733
											}
										}
									}
								}
								JOINT LeftHandPinky1
								{
									OFFSET 10.518692 -0.960396 -5.730441
									CHANNELS 3 Xrotation Yrotation Zrotation
									JOINT LeftHandPinky2
									{
										OFFSET 2.861649 0.000000 0.000000
										CHANNELS 3 Xrotation Yrotation Zrotation
										JOINT LeftHandPinky3
										{
											OFFSET 2.863380 0.000000 0.000000
											CHANNELS 3 Xrotation Yrotation Zrotation
											End Site
											{
												OFFSET -0.843597 2.711159 0.369971
											}
										}
									}
								}
							}
							JOINT LSleeve
							{
								OFFSET 6.676277 -0.344902 -1.011730
								CHANNELS 3 Xrotation Yrotation Zrotation
								End Site
								{
									OFFSET 0.000000 14.885353 0.000000
								}
							}
						}
					}
				}
				JOINT RightShoulder
				{
					OFFSET -6.197800 13.665199 -4.064700
					CHANNELS 3 Xrotation Yrotation Zrotation
					JOINT RightArm
					{
						OFFSET -7.778100 -0.187103 -1.709300
						CHANNELS 3 Xrotation Yrotation Zrotation
						JOINT RightForeArm
						{
							OFFSET -22.049376 0.000000 0.000000
							CHANNELS 3 Xrotation Yrotation Zrotation
							JOINT RightHand
							{
								OFFSET -23.009392 0.000000 0.000000
								CHANNELS 3 Xrotation Yrotation Zrotation
								JOINT RightHandThumb1
								{
									OFFSET -3.507191 -2.063065 3.133727
									CHANNELS 3 Xrotation Yrotation Zrotation
									JOINT RightHandThumb2
									{
										OFFSET -3.101337 -1.790558 1.790558
										CHANNELS 3 Xrotation Yrotation Zrotation
										JOINT RightHandThumb3
										{
											OFFSET -3.058640 -1.765907 1.765906
											CHANNELS 3 Xrotation Yrotation Zrotation
											End Site
											{
												OFFSET 0.415260 3.926476 -0.049563
											}
										}
									}
								}
								JOINT RightHandIndex1
								{
									OFFSET -11.334419 -0.901459 3.706815
									CHANNELS 3 Xrotation Yrotation Zrotation
									JOINT RightHandIndex2
									{
										OFFSET -3.283112 0.000000 0.000000
										CHANNELS 3 Xrotation Yrotation Zrotation
										JOINT RightHandIndex3
										{
											OFFSET -3.323853 0.000000 0.000000
											CHANNELS 3 Xrotation Yrotation Zrotation
											End Site
											{
												OFFSET 1.135597 3.097809 0.402452
											}
										}
									}
								}
								JOINT RightHandMiddle1
								{
									OFFSET -11.335861 0.000000 0.000000
									CHANNELS 3 Xrotation Yrotation Zrotation
									JOINT RightHandMiddle2
									{
										OFFSET -3.410492 0.000000 0.000000
										CHANNELS 3 Xrotation Yrotation Zrotation
										JOINT RightHandMiddle3
										{
											OFFSET -3.312172 0.000000 0.000000
											CHANNELS 3 Xrotation Yrotation Zrotation
											End Site
											{
												OFFSET 1.150200 3.080154 0.400270
											}
										}
									}
								}
								JOINT RightHandRing1
								{
									OFFSET -11.514786 -0.013176 -3.003090
									CHANNELS 3 Xrotation Yrotation Zrotation
									JOINT RightHandRing2
									{
										OFFSET -3.053307 0.000000 0.000000
										CHANNELS 3 Xrotation Yrotation Zrotation
										JOINT RightHandRing3
										{
											OFFSET -3.295807 0.000000 0.000000
											CHANNELS 3 Xrotation Yrotation Zrotation
											End Site
											{
												OFFSET 1.281006 3.013344 0.375733
											}
										}
									}
								}
								JOINT RightHandPinky1
								{
									OFFSET -10.518692 -0.960396 -5.730441
									CHANNELS 3 Xrotation Yrotation Zrotation
									JOINT RightHandPinky2
									{
										OFFSET -2.861649 0.000000 0.000000
										CHANNELS 3 Xrotation Yrotation Zrotation
										JOINT RightHandPinky3
										{
											OFFSET -2.863380 0.000000 0.000000
											CHANNELS 3 Xrotation Yrotation Zrotation
											End Site
											{
												OFFSET 0.843597 2.711159 0.369971
											}
										}
									}
								}
							}
							JOINT RSleeve
							{
								OFFSET -6.676277 -0.344902 -1.011730
								CHANNELS 3 Xrotation Yrotation Zrotation
								End Site
								{
									OFFSET 0.000000 14.885353 0.000000
								}
							}
						}
					}
				}
				JOINT Backpack
				{
					OFFSET 0.000000 -2.471497 36.677502
					CHANNELS 3 Xrotation Yrotation Zrotation
					End Site
					{
						OFFSET 0.000000 20.427315 0.000000
					}
				}
				JOINT Hood
				{
					OFFSET 0.000000 18.754097 -10.431000
					CHANNELS 3 Xrotation Yrotation Zrotation
					JOINT Hood1
					{
						OFFSET 0.000000 -5.011002 -7.685901
						CHANNELS 3 Xrotation Yrotation Zrotation
						End Site
						{
							OFFSET 0.000000 9.175140 0.000000
						}
					}
				}
				JOINT LHoodieString
				{
					OFFSET 5.250500 16.397697 3.089900
					CHANNELS 3 Xrotation Yrotation Zrotation
					JOINT LHoodieString1
					{
						OFFSET 0.257700 -6.364304 3.694600
						CHANNELS 3 Xrotation Yrotation Zrotation
						JOINT LHoodieString2
						{
							OFFSET 0.000000 -9.643799 2.679100
							CHANNELS 3 Xrotation Yrotation Zrotation
							End Site
							{
								OFFSET 0.000000 10.009018 0.000000
							}
						}
					}
				}
				JOINT RHoodieString
				{
					OFFSET -5.250500 16.397697 3.089900
					CHANNELS 3 Xrotation Yrotation Zrotation
					JOINT RHoodieString1
					{
						OFFSET -0.257700 -6.364304 3.694600
						CHANNELS 3 Xrotation Yrotation Zrotation
						JOINT RHoodieString2
						{
							OFFSET 0.000000 -9.643799 2.679100
							CHANNELS 3 Xrotation Yrotation Zrotation
							End Site
							{
								OFFSET 0.000000 10.009018 0.000000
							}
						}
					}
				}
			}
			JOINT LBackpack_Strap
			{
				OFFSET 15.223200 -7.719803 -6.610900
				CHANNELS 3 Xrotation Yrotation Zrotation
				End Site
				{
					OFFSET 0.000000 16.040596 0.000000
				}
			}
			JOINT RBackpack_Strap
			{
				OFFSET -15.223000 -7.719803 -6.610900
				CHANNELS 3 Xrotation Yrotation Zrotation
				End Site
				{
					OFFSET 0.000000 16.040596 0.000000
				}
			}
		}
	}
	JOINT BoyFacialAnim_Joint
	{
		OFFSET 1.000000 -82.208099 -1.550900
		CHANNELS 3 Xrotation Yrotation Zrotation
		End Site
		{
			OFFSET 0.000000 30.012791 0.000000
		}
	}
}
MOTION
Frames: 4
Frame Time: 0.016667
7.942266 72.512527 -0.570995 9.467845 -0.616045 -10.628674 -0.000000 -0.000000 -0.000000 -53.686072 -8.791529 27.759642 48.764699 -2.079662 -1.905707 -2.157702 1.548305 -12.361923 -0.000000 0.000001 -0.000000 -0.000000 0.000001 -0.000000 -0.000000 0.000001 0.000001 -43.097421 -27.141061 2.228312 53.891217 5.795100 -0.847351 -21.168508 -19.813390 -8.191786 -0.000000 -0.000000 0.000000 -0.000000 -0.000000 0.000000 -0.000001 0.000001 0.000000 8.507457 -3.264032 -6.919782 6.795712 -2.703226 -6.539376 6.822725 -2.529054 -6.561657 -6.756028 -0.095606 -6.250957 -31.736768 -12.121329 11.385224 0.000000 0.000000 -0.000001 0.000000 0.000000 -0.000001 0.000000 0.000000 -0.000001 0.657404 -5.474602 -9.273256 -31.650881 6.573777 -19.060519 0.000023 -57.717270 0.000036 -13.439135 -6.592295 17.306786 -6.000705 -6.126813 4.616755 7.611103 24.884934 2.404781 0.000001 -0.000002 0.000002 2.912862 7.374278 -59.057982 2.905716 5.057913 -59.732238 0.000001 0.000001 -0.000003 2.252949 6.917812 -51.180800 3.608296 5.405550 -67.425858 0.000001 0.000000 0.000002 3.218378 7.543749 -62.485398 3.684674 5.436524 -68.234314 0.000000 0.000002 -0.000002 3.994132 7.875982 -70.768840 2.411833 4.736413 -53.951756 0.000000 -0.000002 -0.000002 0.000002 -0.000002 -0.000002 0.361053 -0.787758 2.746801 26.141057 -12.666236 76.530794 0.000084 79.226766 -0.000087 -6.073264 16.835016 -10.845132 -7.540282 -3.885188 -4.751902 7.955467 -28.077781 -3.121234 -0.000000 0.000001 -0.000001 0.055191 3.456513 6.528610 0.319252 -1.696240 21.316694 0.000001 -0.000001 0.000003 -0.862789 -0.131513 17.725493 0.409663 -1.911716 24.188102 0.000001 0.000001 0.000000 2.184502 -6.710187 36.224185 0.531183 -2.161824 27.606161 -0.000001 0.000000 0.000002 6.372311 -15.465758 52.716985 0.699902 -2.457416 31.790917 0.000000 -0.000000 0.000000 -0.000000 -0.000003 -0.000006 0.000002 -0.000000 0.000000 0.000002 -0.000000 0.000000 0.000002 -0.000000 0.000000 0.000002 -0.000000 0.000000 0.000002 -0.000000 -0.000000 0.000001 -0.000000 0.000000 0.000002 -0.000000 0.000000 0.000002 -0.000000 -0.000000 0.000001 -0.000000 0.000000 -0.000000 0.000000 -0.000000 -0.000000 0.000000 -0.000000 -0.000000 -0.000000 -0.000000 
7.979369 72.143112 -1.143617 9.217578 -1.696951 -10.339579 -0.000000 -0.000000 -0.000000 -54.019905 -9.148636 27.926140 49.808202 -1.322578 -1.913519 -2.237237 1.546098 -12.433769 0.000000 -0.000000 0.000000 0.000000 -0.000000 -0.000000 0.000000 -0.000000 -0.000000 -44.199800 -26.249170 2.463760 54.937793 5.847116 -0.848213 -21.005714 -19.994421 -8.452788 -0.000000 -0.000000 -0.000000 -0.000000 -0.000000 -0.000000 0.000001 -0.000000 -0.000000 8.993796 -2.908116 -6.638325 7.111671 -2.571603 -6.414008 7.134276 -2.412002 -6.415073 -6.827573 -0.078840 -6.203635 -31.801480 -11.665230 10.997517 -0.000000 0.000000 0.000001 -0.000000 0.000000 0.000001 -0.000000 0.000000 0.000001 0.636255 -5.572582 -9.846499 -30.413098 9.620333 -20.356762 -0.000001 -56.736991 0.000001 -14.343218 -6.360662 17.068858 -6.000706 -6.126815 4.616757 7.611105 24.884940 2.404789 -0.000001 0.000001 0.000001 2.751056 7.274453 -57.192859 2.743419 4.959998 -57.873600 0.000003 0.000000 -0.000002 2.121146 6.809316 -49.506191 3.475102 5.348477 -66.004619 0.000002 0.000000 0.000000 3.090078 7.475466 -61.059835 3.661143 5.427110 -67.985736 -0.000003 0.000001 -0.000002 3.970091 7.867598 -70.519203 2.461732 4.772238 -54.554008 -0.000002 0.000000 0.000001 -0.000001 0.000005 -0.000002 0.435988 -0.154697 3.207697 23.731619 -11.004984 75.385283 0.000015 77.036290 -0.000011 -6.027880 16.951327 -10.577443 -7.540280 -3.885184 -4.751902 7.955466 -28.077779 -3.121235 -0.000001 -0.000000 0.000000 0.053064 3.449686 6.560499 0.320771 -1.700121 21.368023 0.000001 0.000000 0.000005 -0.863767 -0.045912 17.352792 0.369557 -1.819823 22.956459 -0.000003 -0.000001 0.000003 2.141068 -6.687472 35.625833 0.466195 -2.032809 25.830572 -0.000001 0.000003 0.000001 6.464569 -15.829380 52.143556 0.608262 -2.303139 29.584698 0.000001 -0.000001 -0.000002 -0.000000 -0.000001 -0.000002 0.000003 -0.000001 0.000002 0.000003 -0.000001 0.000002 0.000003 -0.000001 0.000002 0.000003 -0.000001 0.000002 0.000003 -0.000001 0.000002 0.000002 0.000001 0.000004 0.000003 -0.000001 0.000002 0.000003 -0.000001 0.000002 0.000002 0.000001 0.000004 0.000002 -0.000001 -0.000002 0.000002 -0.000001 -0.000002 -0.000000 -0.000000 -0.000000 
8.009928 71.866722 -1.454720 8.942128 -3.086613 -10.035480 -0.000000 0.000000 -0.000001 -53.885012 -9.466631 28.303078 50.836193 -0.106403 -1.922119 -2.550970 1.579897 -12.740150 0.000000 -0.000001 -0.000000 0.000000 -0.000001 -0.000000 -0.000000 -0.000001 -0.000001 -44.824076 -25.513846 2.829941 55.719334 6.251764 -0.850242 -20.939480 -20.011846 -8.822671 -0.000000 -0.000003 0.000000 -0.000000 -0.000003 0.000000 0.000001 -0.000000 -0.000001 9.439736 -2.552119 -6.360609 7.403568 -2.428329 -6.253433 7.422361 -2.272618 -6.260118 -6.781098 -0.061875 -6.124014 -31.448192 -11.031242 10.615892 0.000001 -0.000001 0.000000 0.000001 -0.000001 0.000000 0.000001 -0.000001 0.000000 0.598233 -5.646884 -10.458242 -29.130064 12.344777 -22.295100 0.000015 -55.646979 0.000024 -14.802856 -6.104341 16.567039 -6.000706 -6.126821 4.616755 7.611104 24.884940 2.404783 0.000001 -0.000000 -0.000001 2.566470 7.151425 -55.016614 2.558144 4.839163 -55.704718 0.000001 -0.000000 -0.000004 1.968710 6.675453 -47.516267 3.314514 5.274381 -64.269826 0.000003 -0.000001 -0.000003 2.935872 7.387866 -59.319968 3.593716 5.399489 -67.271162 -0.000004 0.000000 0.000001 3.901188 7.842974 -69.801528 2.469463 4.777695 -54.646779 -0.000002 -0.000001 -0.000000 -0.000001 -0.000001 -0.000001 0.490280 0.534000 3.685338 21.315678 -9.569356 74.194310 -0.000042 75.301367 0.000047 -5.901943 17.065877 -10.420030 -7.540274 -3.885184 -4.751903 7.955467 -28.077776 -3.121234 0.000000 0.000001 0.000001 0.047251 3.429591 6.654587 0.325279 -1.711591 21.519457 -0.000000 0.000000 0.000002 -0.863929 -0.016331 17.224368 0.341048 -1.751025 22.041126 -0.000002 0.000003 -0.000003 2.108131 -6.669260 35.181205 0.413860 -1.921015 24.313667 0.000003 0.000002 0.000001 6.538811 -16.144212 51.652377 0.530193 -2.159947 27.579911 0.000000 -0.000000 0.000000 -0.000000 0.000001 -0.000002 0.000001 0.000000 -0.000001 0.000001 0.000000 -0.000001 0.000001 0.000000 -0.000001 0.000001 0.000000 -0.000001 0.000001 0.000000 -0.000003 0.000001 0.000001 0.000001 0.000001 0.000000 -0.000001 0.000001 0.000000 -0.000003 0.000001 0.000001 0.000001 -0.000001 -0.000001 -0.000001 -0.000001 -0.000001 -0.000001 -0.000000 0.000000 -0.000001 
8.013756 71.622429 -1.711266 8.746167 -4.190414 -9.775100 0.000000 0.000000 0.000000 -53.960598 -9.671804 28.506261 51.874129 0.858241 -1.927319 -2.873501 1.595241 -12.680230 0.000000 0.000001 0.000000 0.000000 0.000001 0.000000 -0.000000 0.000000 0.000001 -45.398437 -24.764096 3.206466 56.406127 6.386445 -0.852630 -20.894706 -20.057892 -9.045587 -0.000000 0.000000 0.000000 -0.000000 0.000000 0.000000 0.000001 0.000001 -0.000001 9.805969 -2.262449 -6.141383 7.641415 -2.286363 -6.122387 7.656625 -2.105084 -6.121625 -6.723330 -0.048805 -5.995121 -31.190042 -10.624256 10.322445 -0.000000 0.000000 -0.000001 -0.000000 0.000000 -0.000001 -0.000000 0.000000 -0.000001 0.557991 -5.698679 -11.061472 -27.972075 14.186040 -24.353227 -0.000010 -54.075151 -0.000008 -14.800740 -5.737577 15.942780 -6.000705 -6.126813 4.616759 7.611105 24.884935 2.404779 0.000002 -0.000001 -0.000001 2.366247 7.006042 -52.589301 2.357035 4.696176 -53.285345 -0.000000 0.000001 -0.000005 1.801735 6.517425 -45.261297 3.131663 5.182645 -62.263574 -0.000001 0.000000 -0.000002 2.760953 7.280765 -57.308067 3.487463 5.353944 -66.137254 -0.000002 -0.000000 -0.000001 3.792470 7.802146 -68.662799 2.448849 4.763043 -54.398724 0.000001 0.000002 -0.000000 -0.000000 -0.000002 0.000000 0.544754 1.131276 4.238604 19.483437 -8.250653 73.006642 0.000025 73.739043 -0.000011 -5.737839 17.098178 -10.273469 -7.540281 -3.885183 -4.751900 7.955467 -28.077779 -3.121229 -0.000001 -0.000000 -0.000003 0.037145 3.396654 6.808490 0.332722 -1.730332 21.767178 0.000001 0.000000 0.000002 -0.864003 -0.023500 17.257076 0.323839 -1.707930 21.470877 -0.000002 0.000004 -0.000003 2.087614 -6.657672 34.904220 0.373624 -1.829390 23.084023 0.000002 0.000001 0.000002 6.595927 -16.402329 51.253268 0.465286 -2.030959 25.805151 0.000003 -0.000002 -0.000000 -0.000000 0.000002 -0.000001 0.000000 0.000002 0.000002 0.000000 0.000002 0.000002 0.000000 0.000002 0.000002 0.000000 0.000002 0.000002 0.000000 0.000002 0.000002 -0.000001 0.000000 0.000001 0.000000 0.000002 0.000002 0.000000 0.000002 0.000002 -0.000001 0.000000 0.000001 -0.000003 -0.000000 0.000000 -0.000003 -0.000000 0.000000 0.000000 0.000000 0.000000 
